<svg xmlns:xlink="http://www.w3.org/1999/xlink" xmlns="http://www.w3.org/2000/svg" width="183" height="54" viewBox="0 0 183 54" fill="none">
<path d="M107.954 12.3066H106.976V41.8982H107.954V12.3066Z" fill="white"/>
<path fill-rule="evenodd" clip-rule="evenodd" d="M73.2288 38.8962H64.9395C62.497 38.8962 60.5878 38.2089 59.2113 36.8344C57.8349 35.4598 57.0845 33.5739 56.9603 31.1763C56.9189 30.081 57.0329 29.0111 57.3021 27.9677C57.5712 26.9239 58.047 25.9679 58.7301 25.0997C59.5789 24.0457 60.5566 23.3635 61.6639 23.0535C62.7713 22.7434 63.9563 22.5885 65.2188 22.5885L68.9134 22.5577V16.6359H73.2288V38.8962ZM68.9134 35.4239V26.0919C68.7478 26.1126 68.5822 26.1228 68.4166 26.1228H66.7089C66.3363 26.1228 65.9691 26.1282 65.607 26.1384C65.2449 26.1485 64.8773 26.1746 64.5047 26.216C64.1735 26.2366 63.8579 26.3295 63.5579 26.4949C63.2576 26.6603 62.9834 26.8565 62.7349 27.0839C62.3006 27.518 61.9951 28.0192 61.8193 28.5878C61.6432 29.1562 61.5346 29.7296 61.4932 30.3084V31.2075C61.5553 33.398 62.1814 34.659 63.3716 34.9898C64.5617 35.3206 65.9847 35.4754 67.6405 35.4547C67.8475 35.4341 68.0596 35.4239 68.2768 35.4239H68.9134ZM38.1147 22.5577H46.4353C48.8777 22.5783 50.7869 23.2809 52.1634 24.6656C53.5399 26.0506 54.2797 27.9416 54.3832 30.3392C54.4453 31.4349 54.3418 32.5095 54.0727 33.5634C53.8036 34.6177 53.3274 35.5686 52.6446 36.4158C51.8166 37.4908 50.844 38.1726 49.7261 38.462C48.6086 38.7515 47.4184 38.8962 46.156 38.8962H42.4301V44.7867H38.1147V22.5577ZM42.4301 26.1228V35.3927C42.575 35.4134 42.7148 35.4239 42.8492 35.4239H43.2683C45.2553 35.4442 46.87 35.2429 48.1117 34.8193C49.3535 34.3954 49.9433 32.8917 49.8812 30.3084C49.8191 28.1381 49.1984 26.8876 48.0184 26.5569C46.8388 26.2261 45.4209 26.0713 43.7652 26.0919C43.5375 26.1126 43.3152 26.1228 43.0976 26.1228H42.4301ZM81.0202 22.5577H76.1768L83.1002 38.8962H87.7573L95.0221 22.5577H90.3653L85.5531 34.1527L81.0202 22.5577Z" fill="white"/>
<path fill-rule="evenodd" clip-rule="evenodd" d="M21.4306 38.2097C25.0716 35.8903 27.9528 32.335 29.367 27.9092C29.3707 27.898 29.3748 27.8875 29.3792 27.8766C29.3792 27.8766 29.7789 26.9291 30.2524 24.4481C30.3745 23.8079 30.474 23.1674 30.5513 22.5276L23.8662 22.6042C23.7939 23.0529 23.707 23.5016 23.6059 23.9496C22.4144 29.2274 19.7202 31.7542 16.8739 33.2212C14.7981 34.2911 12.4245 34.7866 10.0154 34.5721L4.35106 32.7671C1.065 31.7196 -0.751616 28.2057 0.297019 24.9242L6.13748 6.64831C7.18611 3.36685 10.7053 1.55278 13.9914 2.59995L32.2926 8.43222C35.5787 9.47939 37.3953 12.9937 36.3467 16.2751L30.5065 34.5507C29.4576 37.8322 25.9387 39.6462 22.6526 38.5991L21.4306 38.2097ZM31.5884 16.0152C31.5884 13.6196 29.6408 11.6747 27.2419 11.6747C24.8429 11.6747 22.8953 13.6196 22.8953 16.0152C22.8953 18.4108 24.8429 20.3557 27.2419 20.3557C29.6408 20.3557 31.5884 18.4108 31.5884 16.0152Z" fill="white"/>
<path fill-rule="evenodd" clip-rule="evenodd" d="M162.117 49.6005L126.39 38.3253C121.98 36.9322 119.538 32.2293 120.932 27.8245L126.938 8.85394C128.337 4.44956 133.045 2.01158 137.455 3.4046L145.775 6.02473L146.669 3.17692C147.222 1.44732 149.073 0.476798 150.802 1.03234L163.862 5.15597L165.053 1.3804C165.389 0.342563 166.5 -0.230017 167.538 0.0875518L178.108 3.42994C179.167 3.76414 179.741 4.87444 179.406 5.91228L177.225 12.8026V12.8184L173.804 23.609L173.788 23.6561L167.777 42.6267L167.761 42.658L166.256 47.4559L166.234 47.4714C165.697 49.1859 163.883 50.126 162.165 49.6187L162.117 49.6005Z" fill="#0F80EC"/>
<path fill-rule="evenodd" clip-rule="evenodd" d="M168.328 13.1553C172.723 14.5314 175.165 19.2186 173.803 23.6088L177.225 12.8175L177.225 12.8015C177.765 11.0867 176.794 9.24076 175.077 8.68577L163.862 5.15545L161.966 11.1331L168.328 13.1553Z" fill="#1746B0"/>
<path fill-rule="evenodd" clip-rule="evenodd" d="M161.965 11.1314L145.773 6.0236L135.693 37.8154C135.153 39.5302 136.092 41.3747 137.809 41.9296L137.84 41.947L152.787 46.6643C151.748 46.3309 151.159 45.2199 151.493 44.1819L161.965 11.1314Z" fill="#1746B0"/>
<path fill-rule="evenodd" clip-rule="evenodd" d="M161.966 11.1323L151.494 44.1827C151.16 45.2207 151.749 46.3317 152.789 46.6651L157.262 48.0766L157.325 48.0954L162.113 49.6007L162.16 49.6188C163.879 50.126 165.694 49.1858 166.234 47.471L166.25 47.4558L167.759 42.6574L167.776 42.6263L173.785 23.6548L173.803 23.6078C175.165 19.2176 172.723 14.5305 168.329 13.1544L161.966 11.1323Z" fill="#053594"/>
<path fill-rule="evenodd" clip-rule="evenodd" d="M150.867 46.0556V41.6326C150.867 41.6326 152.587 42.5763 153.423 42.8496C154.213 43.1077 155.282 43.2985 155.881 43.2698C161.585 42.9969 165.463 36.8282 162.198 31.5427C160.141 28.2135 156.178 27.3257 152.54 28.4308L150.907 28.9267V11.1321H164.249V17.541L157.31 17.527V21.6748C163.669 22.343 169.238 27.8384 169.739 34.2892C170.284 41.3185 165.989 47.004 160.033 48.9483L150.867 46.0556Z" fill="url(#paint0_linear_2090_3846)"/>
<path d="M164.357 11.1318H150.868V17.6096H164.357V11.1318Z" fill="white"/>
<path fill-rule="evenodd" clip-rule="evenodd" d="M139.436 42.4464V17.7108C139.436 17.6085 139.353 17.5257 139.251 17.5257H133.142V11.1309H145.84V44.4677L139.436 42.4464Z" fill="url(#paint1_linear_2090_3846)"/>
<path d="M145.841 11.1318H133.144V17.6095H145.841V11.1318Z" fill="white"/>
<path d="M174.837 50.4797C174.981 49.9433 175.064 49.529 175.087 49.2374L173.343 48.7711C173.292 48.8601 173.228 48.9918 173.153 49.167C173.079 49.3422 173.012 49.5399 172.952 49.7601C172.901 49.9516 172.861 50.1516 172.833 50.3597C172.808 50.5582 172.808 50.7483 172.834 50.9297C172.862 51.1016 172.928 51.2526 173.033 51.3833C173.128 51.5117 173.271 51.6012 173.462 51.6523C173.835 51.752 174.13 51.6922 174.347 51.4731C174.555 51.2515 174.719 50.9205 174.837 50.4797ZM168.931 49.0542C169.085 48.4794 169.28 48.0129 169.515 47.655C169.751 47.2971 170.017 47.0343 170.313 46.867C170.611 46.6901 170.942 46.5992 171.306 46.5937C171.664 46.5766 172.043 46.6212 172.442 46.7279L176.566 47.8309C176.546 48.1132 176.497 48.5364 176.42 49.1011C176.354 49.6583 176.23 50.2774 176.047 50.9574C175.927 51.4076 175.777 51.8092 175.598 52.162C175.42 52.5147 175.208 52.8019 174.963 53.0239C174.72 53.2361 174.439 53.3817 174.12 53.4609C173.804 53.5303 173.442 53.5105 173.035 53.4015C172.644 53.2972 172.336 53.1274 172.111 52.8928C171.889 52.6484 171.733 52.3605 171.646 52.0291C171.55 51.6952 171.517 51.3323 171.548 50.9401C171.573 50.5359 171.64 50.1281 171.751 49.716C171.802 49.5246 171.869 49.3269 171.952 49.1229C172.026 48.9167 172.121 48.7011 172.238 48.4754L171.977 48.4058C171.795 48.3571 171.615 48.3347 171.438 48.3384C171.26 48.3421 171.094 48.3901 170.939 48.4823C170.778 48.5625 170.636 48.6938 170.512 48.8765C170.391 49.0494 170.291 49.2844 170.211 49.5815C170.103 49.9839 170.03 50.3598 169.992 50.7089C169.955 51.058 169.942 51.3473 169.955 51.5768L168.622 51.4513C168.611 51.2125 168.628 50.8728 168.672 50.4328C168.716 49.9928 168.802 49.5331 168.931 49.0542ZM170.599 44.3991C170.602 44.0404 170.637 43.5826 170.703 43.0253C170.769 42.4677 170.889 41.8634 171.064 41.2121C171.228 40.5988 171.444 40.107 171.711 39.7371C171.969 39.3644 172.269 39.0954 172.611 38.9304C172.946 38.7529 173.322 38.6687 173.738 38.6775C174.148 38.6739 174.583 38.7339 175.043 38.8569L178.868 39.8799L178.401 41.6187L174.823 40.6619C174.459 40.5644 174.143 40.5108 173.876 40.501C173.603 40.4792 173.372 40.5098 173.182 40.5927C172.987 40.6635 172.826 40.795 172.7 40.9873C172.568 41.1676 172.462 41.4062 172.382 41.7033C172.323 41.9235 172.274 42.1569 172.236 42.4035C172.198 42.6497 172.172 42.8329 172.158 42.9526L177.649 44.4209L177.182 46.1597L170.599 44.3991ZM177.743 30.461C178.281 30.6048 178.748 30.8221 179.144 31.1129C179.54 31.4036 179.851 31.7488 180.079 32.1485C180.306 32.5481 180.446 32.9963 180.499 33.4929C180.554 33.9801 180.509 34.4919 180.365 35.0283C180.221 35.565 180.003 36.0304 179.712 36.4245C179.42 36.8189 179.076 37.1323 178.678 37.3649C178.281 37.5975 177.837 37.746 177.346 37.8095C176.857 37.8636 176.344 37.8187 175.806 37.6749C175.268 37.5311 174.806 37.315 174.419 37.0266C174.025 36.7265 173.715 36.3763 173.487 35.9766C173.262 35.5676 173.127 35.1205 173.08 34.6356C173.025 34.1487 173.068 33.6417 173.21 33.1146C173.351 32.588 173.568 32.1272 173.86 31.7328C174.145 31.3267 174.487 31.0072 174.884 30.7746C175.281 30.5419 175.724 30.3985 176.212 30.3444C176.695 30.2786 177.205 30.3172 177.743 30.461ZM177.265 32.243C176.588 32.062 176.011 32.0825 175.533 32.3036C175.049 32.513 174.73 32.9052 174.576 33.48C174.422 34.0548 174.5 34.5586 174.812 34.9908C175.117 35.4114 175.608 35.7121 176.285 35.893C176.97 36.0762 177.554 36.0632 178.038 35.8537C178.524 35.6349 178.845 35.2378 178.999 34.663C179.154 34.0882 179.074 33.5893 178.76 33.1665C178.448 32.7343 177.95 32.4262 177.265 32.243ZM180.894 27.8126C181.018 27.3527 181.06 27.0047 181.021 26.7684C180.974 26.5296 180.828 26.3779 180.586 26.313C180.36 26.2527 180.143 26.3178 179.934 26.5083C179.727 26.689 179.467 27.0151 179.155 27.4861C178.966 27.7744 178.779 28.0374 178.595 28.2757C178.403 28.5018 178.204 28.69 177.997 28.8397C177.789 28.9895 177.562 29.093 177.314 29.15C177.06 29.1949 176.773 29.1746 176.452 29.0889C175.827 28.9218 175.405 28.5368 175.186 27.9341C174.958 27.329 174.961 26.5905 175.195 25.7186C175.314 25.2778 175.466 24.8668 175.652 24.4853C175.829 24.1015 175.98 23.8182 176.103 23.6357L177.293 24.2928C177.164 24.4634 177.029 24.6891 176.888 24.97C176.739 25.2485 176.612 25.5842 176.506 25.9768C176.411 26.3314 176.39 26.6339 176.444 26.8843C176.489 27.1323 176.624 27.2867 176.85 27.347C176.962 27.3771 177.067 27.3848 177.164 27.3696C177.264 27.3449 177.367 27.2901 177.473 27.2058C177.571 27.119 177.682 26.9997 177.806 26.8482C177.922 26.6942 178.052 26.5031 178.197 26.275C178.447 25.9 178.679 25.5876 178.895 25.3373C179.103 25.0847 179.317 24.8907 179.54 24.755C179.756 24.6075 179.984 24.5195 180.224 24.4913C180.464 24.463 180.736 24.4895 181.039 24.5707C181.69 24.7447 182.112 25.1453 182.307 25.7721C182.495 26.3873 182.456 27.188 182.191 28.1749C182.014 28.8359 181.819 29.3537 181.607 29.7282C181.403 30.105 181.249 30.3669 181.145 30.5134L179.912 29.8602C180.077 29.6271 180.25 29.345 180.432 29.0136C180.617 28.6728 180.771 28.2724 180.894 27.8126Z" fill="white"/>
<defs>
<linearGradient id="paint0_linear_2090_3846" x1="160.326" y1="18.7995" x2="160.326" y2="54.5812" gradientUnits="userSpaceOnUse">
<stop stop-color="#CECECE"/>
<stop offset="0.35" stop-color="white"/>
<stop offset="1" stop-color="white"/>
</linearGradient>
<linearGradient id="paint1_linear_2090_3846" x1="139.491" y1="17.89" x2="139.491" y2="49.4334" gradientUnits="userSpaceOnUse">
<stop stop-color="#CECECE"/>
<stop offset="0.35" stop-color="white"/>
<stop offset="1" stop-color="white"/>
</linearGradient>
</defs>
</svg>