<svg xmlns:xlink="http://www.w3.org/1999/xlink" xmlns="http://www.w3.org/2000/svg" width="114" height="51" viewBox="0 0 114 51" fill="none">
<path fill-rule="evenodd" clip-rule="evenodd" d="M87.1743 43.5768H77.3165C74.4121 43.5768 72.1414 42.7583 70.5047 41.1216C68.8678 39.4847 67.9756 37.2387 67.8278 34.3835C67.7787 33.079 67.914 31.8052 68.2341 30.5622C68.5541 29.3194 69.12 28.1809 69.9323 27.1471C70.9415 25.8918 72.1046 25.0795 73.4214 24.7103C74.7382 24.3411 76.1473 24.1565 77.6488 24.1565L82.0423 24.1197V17.0679H87.1743V43.5768ZM82.0423 39.4418V28.3286C81.8454 28.3533 81.6485 28.3655 81.4515 28.3655H79.4209C78.9778 28.3655 78.541 28.3717 78.1103 28.384C77.6796 28.3962 77.2426 28.427 76.7995 28.4763C76.4058 28.5009 76.0304 28.6116 75.6735 28.8085C75.3166 29.0055 74.9905 29.2393 74.695 29.5101C74.1783 30.027 73.8152 30.6238 73.606 31.3008C73.3968 31.9776 73.2674 32.6606 73.2183 33.3498V34.4205C73.2921 37.0295 74.0368 38.5309 75.452 38.9248C76.8673 39.3187 78.5595 39.5033 80.5285 39.4786C80.7747 39.4539 81.027 39.4418 81.2854 39.4418H82.0423ZM45.4166 24.1193H55.3113C58.2158 24.144 60.4863 24.9808 62.1232 26.6299C63.7601 28.2791 64.64 30.5311 64.763 33.3863C64.8369 34.6909 64.7138 35.9709 64.3938 37.2261C64.0738 38.4814 63.5077 39.6137 62.6954 40.6227C61.7109 41.9028 60.5541 42.715 59.2249 43.0595C57.8958 43.4042 56.4806 43.5765 54.9791 43.5765H50.5486V50.5913H45.4166V24.1193ZM50.5486 28.3651V39.4044C50.721 39.4291 50.887 39.4414 51.0471 39.4414H51.5454C53.9084 39.4659 55.8282 39.2259 57.305 38.7214C58.7818 38.2168 59.4834 36.4261 59.4095 33.3495C59.3356 30.7651 58.5972 29.2759 57.1943 28.8821C55.7914 28.4882 54.1053 28.3036 52.1362 28.3283C51.8654 28.3529 51.6009 28.3651 51.3424 28.3651H50.5486ZM96.4411 24.1193H90.6815L98.9148 43.5765H104.453L113.092 24.1193H107.554L101.832 37.9276L96.4411 24.1193Z" fill="white"/>
<path fill-rule="evenodd" clip-rule="evenodd" d="M25.5773 42.7597C29.9075 39.9977 33.3335 35.7641 35.0155 30.4931C35.0197 30.48 35.0245 30.4673 35.0299 30.4546C35.0299 30.4546 35.5054 29.3261 36.0682 26.3717C36.2135 25.6092 36.3319 24.8464 36.4241 24.0845L28.474 24.1758C28.3878 24.71 28.2847 25.2442 28.1644 25.7778C26.7473 32.0632 23.5435 35.0721 20.1588 36.8191C17.69 38.0935 14.8676 38.6834 12.0025 38.4278L5.26633 36.2782C1.35853 35.0312 -0.801661 30.8462 0.445404 26.9384L7.39068 5.17417C8.63775 1.26637 12.8227 -0.893825 16.7305 0.353241L38.4947 7.29852C42.4025 8.54559 44.5627 12.7306 43.3157 16.6384L36.3704 38.4026C35.1233 42.3104 30.9383 44.4706 27.0305 43.2235L25.5773 42.7597ZM37.6574 16.329C37.6574 13.4761 35.3412 11.1599 32.4883 11.1599C29.6353 11.1599 27.3191 13.4761 27.3191 16.329C27.3191 19.1818 29.6353 21.4981 32.4883 21.4981C35.3412 21.4981 37.6574 19.1818 37.6574 16.329Z" fill="white"/>
</svg>